<svg width="138" height="30" viewBox="0 0 138 30" fill="none" xmlns="http://www.w3.org/2000/svg" xmlns:xlink="http://www.w3.org/1999/xlink">
<path d="M43.097,4.637C42.844,3.741 42.351,2.924 41.666,2.267C40.982,1.61 40.13,1.137 39.196,0.895C35.776,0 22.014,0 22.014,0C22.014,0 8.251,0.027 4.831,0.922C3.897,1.165 3.046,1.638 2.361,2.294C1.677,2.951 1.184,3.768 0.931,4.664C-0.103,10.495 -0.505,19.379 0.96,24.976C1.212,25.872 1.705,26.689 2.39,27.346C3.074,28.002 3.925,28.475 4.859,28.718C8.279,29.613 22.042,29.613 22.042,29.613C22.042,29.613 35.805,29.613 39.225,28.718C40.159,28.475 41.01,28.002 41.694,27.346C42.379,26.689 42.872,25.872 43.125,24.976C44.215,19.137 44.552,10.259 43.096,4.637L43.097,4.637Z" fill="#FF0000"/>
<path d="M17.633,21.152L29.051,14.807L17.633,8.461L17.633,21.152Z" fill="#FFFFFF"/>
<path d="M132.401,8.596C133.899,8.596 135.029,8.867 135.82,9.383C136.612,9.898 137.177,10.711 137.516,11.824C137.855,12.935 137.996,14.454 137.996,16.406L137.996,19.579L130.733,19.579L130.733,20.555L130.847,23.24C130.931,23.837 131.073,24.271 131.299,24.542C131.525,24.813 131.892,24.948 132.373,24.948C133.023,24.948 133.475,24.705 133.701,24.217C133.955,23.728 134.068,22.915 134.096,21.803L137.855,22.02C137.883,22.183 137.883,22.4 137.883,22.671C137.883,24.379 137.403,25.654 136.414,26.494C135.425,27.335 134.068,27.769 132.288,27.769C130.14,27.769 128.642,27.118 127.794,25.844C126.947,24.569 126.494,22.562 126.494,19.877L126.494,16.596C126.59,11.986 127.435,8.61 132.401,8.596L132.401,8.596ZM80.147,8.949L80.147,22.535C80.147,23.349 80.231,23.945 80.429,24.298C80.83,25.052 81.871,24.859 82.436,24.488C82.762,24.276 83.025,23.986 83.199,23.647L83.199,8.949L87.523,8.949L87.523,27.47L84.131,27.47L83.764,25.192L83.679,25.192C82.747,26.901 81.362,27.768 79.525,27.768C76.698,27.762 76.006,25.807 75.841,23.822L75.83,23.682C75.81,23.381 75.798,23.08 75.794,22.779L75.794,8.949L80.146,8.949L80.147,8.949ZM102.444,8.949L102.444,22.535C102.444,23.349 102.529,23.945 102.727,24.298C103.129,25.052 104.168,24.859 104.734,24.488C105.06,24.276 105.323,23.986 105.497,23.647L105.497,8.949L109.82,8.949L109.82,27.47L106.429,27.47L106.062,25.192L105.977,25.192C105.045,26.901 103.659,27.768 101.823,27.768C98.995,27.762 98.304,25.807 98.139,23.822L98.128,23.682C98.108,23.381 98.096,23.08 98.092,22.779L98.092,8.949L102.444,8.949ZM67.599,8.596C69.012,8.596 70.17,8.867 71.018,9.437C71.866,10.006 72.516,10.874 72.912,12.067C73.307,13.261 73.505,14.86 73.505,16.84L73.505,19.525C73.505,21.504 73.307,23.077 72.912,24.27C72.516,25.464 71.894,26.332 71.018,26.901C70.142,27.443 68.955,27.742 67.486,27.742C65.959,27.769 64.772,27.471 63.896,26.928C63.021,26.359 62.399,25.491 62.031,24.298C61.664,23.105 61.494,21.532 61.494,19.552L61.494,16.867C61.494,14.887 61.692,13.26 62.116,12.067C62.54,10.847 63.19,9.979 64.094,9.437C64.999,8.894 66.157,8.596 67.599,8.596L67.599,8.596ZM116.603,1.166L116.603,10.928L116.631,10.928C117.027,10.223 117.536,9.654 118.242,9.22C118.902,8.794 119.68,8.568 120.475,8.569C121.52,8.569 122.312,8.84 122.905,9.355C123.499,9.898 123.923,10.739 124.177,11.905C124.423,13.034 124.564,14.597 124.572,16.567L124.573,16.759L124.573,19.688C124.573,22.426 124.205,24.46 123.527,25.762C122.821,27.064 121.747,27.715 120.277,27.715C119.458,27.715 118.723,27.525 118.044,27.172C117.445,26.837 116.947,26.356 116.603,25.778L116.546,25.681L116.462,25.681L116.01,27.443L112.42,27.443L112.42,1.166L116.603,1.166L116.603,1.166ZM99.307,2.115L99.307,5.477L95.012,5.477L95.012,27.47L90.773,27.47L90.773,5.478L86.449,5.478L86.449,2.115L99.308,2.115L99.307,2.115ZM52.705,2.115L52.708,2.125C52.749,2.302 53.32,4.739 53.949,7.579L53.998,7.804L54.073,8.144L54.123,8.372L54.149,8.487L54.199,8.717L54.224,8.832L54.274,9.062L54.346,9.399C54.771,11.366 55.176,13.338 55.418,14.752L55.531,14.752C55.763,13.484 56.101,11.86 56.46,10.203L56.555,9.77C56.602,9.553 56.649,9.336 56.697,9.12L56.771,8.785C57.259,6.588 57.762,4.395 58.28,2.204L58.288,2.169L58.301,2.115L62.625,2.115L57.622,19.227L57.622,27.443L53.355,27.443L53.355,19.254L53.327,19.254L48.381,2.115L52.705,2.115L52.705,2.115ZM67.514,11.471C66.92,11.471 66.525,11.769 66.27,12.393C66.016,13.017 65.903,13.966 65.903,15.295L65.903,21.071C65.903,22.427 66.016,23.43 66.242,24.027C66.468,24.623 66.892,24.922 67.514,24.922C68.107,24.922 68.531,24.623 68.786,24.027C69.04,23.43 69.153,22.427 69.153,21.071L69.153,15.294C69.153,13.966 69.04,12.989 68.786,12.393C68.531,11.769 68.107,11.471 67.514,11.471L67.514,11.471ZM117.366,12.013C117.022,12.319 116.777,12.695 116.631,13.165L116.603,13.261L116.603,23.782C116.953,24.352 117.451,24.732 118.327,24.759C118.779,24.759 119.146,24.596 119.429,24.271C119.712,23.945 119.91,23.403 120.022,22.643C120.131,21.915 120.188,20.911 120.192,19.632L120.192,17.057C120.192,15.593 120.135,14.481 120.051,13.695C119.938,12.908 119.797,12.339 119.542,12.013C119.05,11.335 117.988,11.344 117.366,12.013ZM132.316,11.39C131.836,11.417 131.496,11.552 131.299,11.796C131.073,12.067 130.931,12.474 130.847,13.071C130.763,13.655 130.735,15.698 130.733,15.78L130.733,17.112L133.899,17.112L133.899,15.937L133.899,15.96C133.897,16.37 133.888,15.722 133.868,14.925L133.866,14.818C133.848,14.119 133.822,13.338 133.786,13.071C133.701,12.447 133.559,12.013 133.333,11.769C133.107,11.525 132.768,11.39 132.316,11.39L132.316,11.39Z" fill="#282828"/>
</svg>
