<svg width="112" height="68" viewBox="0 0 112 68" fill="none" xmlns="http://www.w3.org/2000/svg" xmlns:xlink="http://www.w3.org/1999/xlink">
<path d="M110.314,3.02C109.747,1.656 108.664,0.573 107.3,0.006C106.63,-0.279 105.909,-0.431 105.18,-0.44L77.28,-0.44C75.8,-0.44 74.381,0.148 73.334,1.194C72.288,2.241 71.7,3.66 71.7,5.14C71.7,6.62 72.288,8.039 73.334,9.086C74.381,10.132 75.8,10.72 77.28,10.72L91.732,10.72L60.54,41.912L42.182,23.498C41.663,22.975 41.046,22.56 40.366,22.277C39.686,21.994 38.957,21.848 38.22,21.848C37.483,21.848 36.754,21.994 36.074,22.277C35.394,22.56 34.777,22.975 34.258,23.498L0.778,56.978C0.255,57.497 -0.16,58.114 -0.443,58.794C-0.726,59.474 -0.872,60.203 -0.872,60.94C-0.872,61.677 -0.726,62.406 -0.443,63.086C-0.16,63.766 0.255,64.383 0.778,64.902C1.297,65.425 1.914,65.84 2.594,66.123C3.274,66.407 4.003,66.552 4.74,66.552C5.477,66.552 6.206,66.407 6.886,66.123C7.566,65.84 8.183,65.425 8.702,64.902L38.22,35.328L56.578,53.742C57.097,54.265 57.714,54.68 58.394,54.963C59.074,55.247 59.803,55.392 60.54,55.392C61.277,55.392 62.006,55.247 62.686,54.963C63.366,54.68 63.983,54.265 64.502,53.742L99.6,18.588L99.6,33.04C99.6,34.52 100.188,35.939 101.234,36.986C102.281,38.032 103.7,38.62 105.18,38.62C106.66,38.62 108.079,38.032 109.126,36.986C110.172,35.939 110.76,34.52 110.76,33.04L110.76,5.14C110.751,4.411 110.6,3.69 110.314,3.02L110.314,3.02Z" fill="#000000"/>
</svg>
