<svg width="134" height="134" viewBox="0 0 134 134" fill="none" xmlns="http://www.w3.org/2000/svg" xmlns:xlink="http://www.w3.org/1999/xlink">
<path d="M36.39,57.844L40.81,58.469L36.39,57.844ZM36.301,58.469L31.882,57.844L36.301,58.469ZM97.529,57.844L101.949,57.219L97.529,57.844ZM97.619,58.469L93.199,59.094L97.619,58.469ZM84.816,111.68L84.816,116.144C86,116.144 87.135,115.673 87.972,114.836C88.81,113.999 89.28,112.864 89.28,111.68L84.816,111.68ZM49.104,111.68L44.64,111.68C44.64,112.864 45.11,113.999 45.947,114.836C46.784,115.673 47.92,116.144 49.104,116.144L49.104,111.68ZM42.452,81.798L45.988,79.066L42.452,81.798ZM91.467,81.798L87.932,79.066L91.467,81.798ZM53.568,134L80.352,134L80.352,125.072L53.568,125.072L53.568,134ZM31.962,57.219L31.873,57.844L40.712,59.094L40.801,58.469L31.962,57.219ZM66.96,26.864C58.449,26.862 50.224,29.932 43.794,35.508C37.365,41.084 33.164,48.793 31.962,57.219L40.801,58.469C41.701,52.173 44.843,46.414 49.648,42.248C54.453,38.082 60.6,35.79 66.96,35.792L66.96,26.864ZM101.958,57.219C100.756,48.793 96.555,41.084 90.125,35.508C83.696,29.932 75.471,26.862 66.96,26.864L66.96,35.792C73.319,35.792 79.465,38.085 84.27,42.25C89.075,46.416 92.217,52.174 93.119,58.469L101.958,57.219ZM102.047,57.844L101.958,57.219L93.119,58.469L93.208,59.094L102.047,57.844ZM94.994,84.53C100.618,77.262 103.458,67.79 102.047,57.835L93.208,59.103C93.72,62.613 93.517,66.191 92.611,69.622C91.706,73.052 90.118,76.264 87.941,79.066L94.994,84.53ZM80.352,97.395L80.352,111.68L89.28,111.68L89.28,97.404L80.352,97.404L80.352,97.395ZM84.816,107.216L49.104,107.216L49.104,116.144L84.816,116.144L84.816,107.216ZM53.568,111.68L53.568,97.404L44.64,97.404L44.64,111.68L53.568,111.68ZM31.873,57.844C31.194,62.538 31.469,67.32 32.681,71.905C33.893,76.49 36.017,80.784 38.926,84.53L45.979,79.066C43.802,76.264 42.214,73.052 41.308,69.622C40.403,66.191 40.2,62.613 40.712,59.103L31.873,57.835L31.873,57.844ZM53.568,97.395C53.568,90.047 49.657,83.798 45.979,79.057L38.926,84.521C42.345,88.94 44.64,93.163 44.64,97.395L53.568,97.395ZM87.941,79.057C84.253,83.806 80.352,90.047 80.352,97.395L89.28,97.395C89.28,93.163 91.574,88.94 94.994,84.521L87.941,79.057L87.941,79.057ZM62.496,0.08L62.496,17.936L71.424,17.936L71.424,0.08L62.496,0.08ZM0,71.504L17.856,71.504L17.856,62.576L0,62.576L0,71.504ZM116.064,71.504L133.92,71.504L133.92,62.576L116.064,62.576L116.064,71.504ZM29.944,32.631L16.552,19.239L10.231,25.56L23.623,38.952L29.944,32.631ZM110.296,38.952L123.688,25.56L117.367,19.239L103.975,32.631L110.296,38.952Z" fill="#000000"/>
</svg>
