<svg width="116" height="100" viewBox="0 0 116 100" fill="none" xmlns="http://www.w3.org/2000/svg" xmlns:xlink="http://www.w3.org/1999/xlink">
<path d="M74.896,66.171C79.516,66.171 83.266,69.921 83.266,74.541L83.266,84.117L83.227,84.633C81.745,94.806 72.609,99.695 57.28,99.695C42.009,99.695 32.725,94.864 30.721,84.81L30.654,84.107L30.654,74.541C30.654,69.921 34.404,66.171 39.024,66.171L74.896,66.171ZM77.258,37.474L105.984,37.474C110.604,37.474 114.354,41.224 114.354,45.844L114.354,55.42L114.316,55.936C112.833,66.109 103.698,70.997 88.369,70.997L87.565,70.988C86.828,68.367 85.296,66.038 83.18,64.324C81.064,62.61 78.469,61.595 75.752,61.417L74.896,61.389L70.486,61.389C72.985,59.373 75.001,56.823 76.385,53.926C77.769,51.029 78.486,47.859 78.483,44.649C78.483,42.133 78.052,39.722 77.258,37.474ZM7.936,37.474L36.661,37.474C35.867,39.722 35.437,42.133 35.437,44.649C35.437,51.01 38.202,56.735 42.592,60.671L43.434,61.389L39.024,61.389C32.988,61.389 27.899,65.454 26.35,71.002L26.192,70.997C10.92,70.997 1.637,66.167 -0.367,56.113L-0.434,55.41L-0.434,45.844C-0.434,41.224 3.315,37.474 7.936,37.474ZM56.96,27.909C61.4,27.909 65.658,29.672 68.797,32.812C71.936,35.951 73.7,40.209 73.7,44.649C73.7,49.088 71.936,53.346 68.797,56.486C65.658,59.625 61.4,61.389 56.96,61.389C52.52,61.389 48.262,59.625 45.123,56.486C41.984,53.346 40.22,49.088 40.22,44.649C40.22,40.209 41.984,35.951 45.123,32.812C48.262,29.672 52.52,27.909 56.96,27.909ZM88.048,-0.789C92.488,-0.789 96.746,0.975 99.885,4.114C103.025,7.254 104.789,11.512 104.789,15.951C104.789,20.391 103.025,24.649 99.885,27.788C96.746,30.928 92.488,32.691 88.048,32.691C83.609,32.691 79.351,30.928 76.212,27.788C73.072,24.649 71.308,20.391 71.308,15.951C71.308,11.512 73.072,7.254 76.212,4.114C79.351,0.975 83.609,-0.789 88.048,-0.789L88.048,-0.789ZM25.871,-0.789C30.311,-0.789 34.569,0.975 37.708,4.114C40.848,7.254 42.611,11.512 42.611,15.951C42.611,20.391 40.848,24.649 37.708,27.788C34.569,30.928 30.311,32.691 25.871,32.691C21.432,32.691 17.174,30.928 14.034,27.788C10.895,24.649 9.131,20.391 9.131,15.951C9.131,11.512 10.895,7.254 14.034,4.114C17.174,0.975 21.432,-0.789 25.871,-0.789L25.871,-0.789Z" fill="#000000"/>
</svg>
