<svg width="46" height="88" viewBox="0 0 46 88" fill="none" xmlns="http://www.w3.org/2000/svg" xmlns:xlink="http://www.w3.org/1999/xlink">
<path d="M43.522,1.899C44.63,3.115 45.252,4.765 45.252,6.485C45.252,8.205 44.63,9.854 43.522,11.07L14.266,43.177L43.522,75.284C44.599,76.507 45.194,78.145 45.181,79.846C45.167,81.547 44.546,83.173 43.45,84.376C42.354,85.579 40.872,86.261 39.322,86.276C37.773,86.29 36.28,85.637 35.165,84.455L1.73,47.763C0.622,46.546 0,44.897 0,43.177C0,41.457 0.622,39.808 1.73,38.591L35.165,1.899C36.273,0.683 37.776,0 39.343,0C40.911,0 42.414,0.683 43.522,1.899L43.522,1.899Z" fill="#004AAD"/>
</svg>
