<svg width="50" height="88" viewBox="0 0 50 88" fill="none" xmlns="http://www.w3.org/2000/svg" xmlns:xlink="http://www.w3.org/1999/xlink">
<path d="M1.849,1.899C0.665,3.115 0,4.765 0,6.485C0,8.205 0.665,9.854 1.849,11.07L33.108,43.177L1.849,75.284C0.699,76.507 0.062,78.145 0.076,79.846C0.091,81.547 0.755,83.173 1.926,84.376C3.097,85.579 4.681,86.261 6.336,86.276C7.992,86.29 9.587,85.637 10.778,84.455L46.502,47.763C47.686,46.546 48.351,44.897 48.351,43.177C48.351,41.457 47.686,39.808 46.502,38.591L10.778,1.899C9.594,0.683 7.988,0 6.314,0C4.639,0 3.033,0.683 1.849,1.899L1.849,1.899Z" fill="#004AAD"/>
</svg>
