<svg width="92" height="128" viewBox="0 0 92 128" fill="none" xmlns="http://www.w3.org/2000/svg" xmlns:xlink="http://www.w3.org/1999/xlink">
<path d="M46,0.25L13,34.25L33.625,34.25L33.625,66.125L58.375,66.125L58.375,34.25L79,34.25L46,0.25ZM46,127.75C39.177,127.75 33.625,121.698 33.625,114.26L33.625,94.483C33.625,87.052 39.177,81 46,81C52.823,81 58.375,87.052 58.375,94.485L58.375,114.263C58.375,121.698 52.823,127.75 46,127.75ZM46,88.189C42.589,88.189 39.813,91.015 39.813,94.485L39.813,114.263C39.813,117.733 42.589,120.563 46,120.563C49.411,120.563 52.187,117.733 52.187,114.263L52.187,94.485C52.187,91.015 49.411,88.189 46,88.189L46,88.189ZM25.375,81L0.625,81L0.625,87.375L9.906,87.375L9.906,127.75L16.094,127.75L16.094,87.375L25.375,87.375L25.375,81ZM79,81L66.625,81L66.625,127.75L72.813,127.75L72.813,107.968L79,107.968C85.823,107.968 91.375,101.916 91.375,94.479C91.375,87.048 85.823,81 79,81ZM79,100.782L72.813,100.782L72.813,88.189L79,88.189C82.411,88.189 85.187,91.011 85.187,94.481C85.187,97.951 82.411,100.782 79,100.782Z" fill="#004AAD"/>
</svg>
