<svg width="112" height="82" viewBox="0 0 112 82" fill="none" xmlns="http://www.w3.org/2000/svg" xmlns:xlink="http://www.w3.org/1999/xlink">
<path d="M21.424,1.584C22.208,2.369 22.648,3.432 22.648,4.541C22.648,5.65 22.208,6.714 21.424,7.499C17.02,11.903 13.526,17.132 11.142,22.886C8.758,28.641 7.532,34.809 7.532,41.037C7.532,47.266 8.758,53.434 11.142,59.188C13.526,64.943 17.02,70.172 21.424,74.576C22.186,75.366 22.607,76.423 22.597,77.52C22.587,78.618 22.147,79.667 21.37,80.443C20.594,81.218 19.544,81.658 18.447,81.667C17.35,81.676 16.293,81.254 15.504,80.491C-6.286,58.701 -6.286,23.374 15.504,1.584C16.288,0.8 17.352,0.36 18.461,0.36C19.57,0.36 20.634,0.8 21.418,1.584L21.424,1.584ZM94.416,1.584C116.206,23.374 116.206,58.701 94.416,80.496C93.623,81.236 92.573,81.638 91.489,81.619C90.405,81.6 89.371,81.161 88.604,80.394C87.837,79.627 87.398,78.593 87.379,77.508C87.36,76.424 87.762,75.375 88.501,74.582C92.907,70.177 96.401,64.948 98.785,59.193C101.169,53.438 102.397,47.27 102.397,41.04C102.397,34.811 101.169,28.642 98.785,22.887C96.401,17.132 92.907,11.903 88.501,7.499C88.09,7.116 87.76,6.654 87.532,6.14C87.303,5.627 87.18,5.073 87.17,4.511C87.16,3.949 87.263,3.391 87.474,2.87C87.684,2.348 87.998,1.875 88.395,1.478C88.792,1.08 89.266,0.767 89.787,0.557C90.308,0.346 90.866,0.243 91.428,0.253C91.99,0.263 92.544,0.386 93.058,0.614C93.571,0.843 94.033,1.173 94.416,1.584L94.416,1.584ZM37.204,17.364C37.988,18.149 38.428,19.213 38.428,20.322C38.428,21.431 37.988,22.494 37.204,23.279C34.872,25.611 33.021,28.379 31.759,31.426C30.497,34.473 29.847,37.739 29.847,41.037C29.847,44.336 30.497,47.601 31.759,50.648C33.021,53.696 34.872,56.464 37.204,58.796C37.944,59.589 38.346,60.638 38.327,61.723C38.308,62.807 37.869,63.841 37.102,64.608C36.335,65.375 35.301,65.814 34.216,65.833C33.132,65.852 32.083,65.45 31.289,64.711C25.011,58.432 21.484,49.916 21.484,41.037C21.484,32.158 25.011,23.643 31.289,17.364C32.074,16.58 33.138,16.14 34.247,16.14C35.356,16.14 36.42,16.58 37.204,17.364ZM78.636,17.364C84.914,23.643 88.441,32.158 88.441,41.037C88.441,49.916 84.914,58.432 78.636,64.711C78.25,65.11 77.788,65.43 77.278,65.649C76.767,65.869 76.218,65.984 75.663,65.989C75.107,65.995 74.556,65.889 74.041,65.679C73.527,65.469 73.06,65.158 72.666,64.765C72.273,64.372 71.962,63.905 71.752,63.391C71.541,62.877 71.435,62.326 71.439,61.77C71.444,61.215 71.559,60.665 71.778,60.155C71.997,59.644 72.316,59.182 72.715,58.796C75.047,56.464 76.897,53.696 78.159,50.649C79.421,47.603 80.07,44.338 80.07,41.04C80.07,37.743 79.421,34.477 78.159,31.431C76.897,28.384 75.047,25.616 72.715,23.285C71.976,22.491 71.574,21.442 71.593,20.358C71.612,19.274 72.051,18.239 72.818,17.472C73.585,16.706 74.619,16.266 75.703,16.247C76.788,16.228 77.837,16.631 78.63,17.37L78.636,17.364ZM54.96,32.67C57.18,32.67 59.309,33.552 60.878,35.122C62.448,36.691 63.33,38.82 63.33,41.04C63.33,43.26 62.448,45.389 60.878,46.959C59.309,48.528 57.18,49.41 54.96,49.41C52.74,49.41 50.611,48.528 49.041,46.959C47.472,45.389 46.59,43.26 46.59,41.04C46.59,38.82 47.472,36.691 49.041,35.122C50.611,33.552 52.74,32.67 54.96,32.67Z" fill="#000000"/>
</svg>
